<?xml version="1.0" encoding="utf-8"?>
<!-- Generator: Adobe Illustrator 28.4.1, SVG Export Plug-In . SVG Version: 6.00 Build 0)  -->
<svg version="1.1" id="Livello_1" xmlns="http://www.w3.org/2000/svg" xmlns:xlink="http://www.w3.org/1999/xlink" x="0px" y="0px"
	 viewBox="0 0 2000 2000" style="enable-background:new 0 0 2000 2000;" xml:space="preserve">
<style type="text/css">
	.st0{fill:#1F2234;}
	.st1{fill:#F93348;}
</style>
<g>
	<g>
		<g>
			<path class="st0" d="M683.59,927.48c9.48,3.09,17.53,7.11,24.13,12.06l-17.28,21.65c-9.55-6.87-20.65-10.31-33.3-10.31
				c-14.61,0-26.38,4.26-35.3,12.78c-8.92,8.52-13.38,19.8-13.38,33.82c0,13.88,4.39,25.05,13.17,33.51
				c8.78,8.45,20.41,12.68,34.88,12.68c9.41,0,18.05-2.27,25.92-6.8v-23.92h-33.3v-23.92h64.27v61.04
				c-7.45,6.46-16.4,11.68-26.87,15.67c-10.47,3.99-20.62,5.98-30.45,5.98c-24.31,0-43.83-6.8-58.59-20.41
				c-14.75-13.61-22.13-31.62-22.13-54.03c0-22.41,7.41-40.42,22.23-54.03s34.39-20.41,58.69-20.41
				C665,922.84,674.1,924.38,683.59,927.48z"/>
			<path class="st0" d="M845.75,952.53H772.2v32.99h68.28v24.95H772.2v31.55h73.55v27.43H739.32V925.1h106.42V952.53z"/>
			<path class="st0" d="M995.37,1069.45h-25.5l-64.7-87.85v87.85h-32.88V925.1h25.71l64.27,86.82V925.1h33.09V1069.45z"/>
			<path class="st0" d="M1060.69,1069.45h-32.88V925.1h32.88V1069.45z"/>
			<path class="st0" d="M1213.9,1014.81c0,17.05-5.62,30.79-16.86,41.24c-11.24,10.45-25.99,15.67-44.25,15.67
				s-33.02-5.22-44.25-15.67c-11.24-10.45-16.86-24.2-16.86-41.24v-89.7h33.09v89.7c0,8.66,2.53,15.64,7.59,20.93
				c5.06,5.29,11.87,7.94,20.44,7.94c8.43,0,15.24-2.65,20.44-7.94c5.2-5.29,7.8-12.27,7.8-20.93v-89.7h32.88V1014.81z"/>
			<path class="st0" d="M1346.23,935.42l-11.59,23.3c-12.64-6.87-25.85-10.31-39.62-10.31c-7.45,0-13.17,1.31-17.18,3.92
				c-4,2.61-6.01,6.32-6.01,11.14c0,3.99,1.41,7.22,4.22,9.69c2.81,2.47,7.02,4.61,12.64,6.39l20.44,6.6
				c13.91,4.54,24.45,10.04,31.61,16.5c7.17,6.46,10.75,15.19,10.75,26.19c0,13.47-5.16,23.99-15.49,31.55
				c-10.33,7.56-24.48,11.34-42.46,11.34c-23.46,0-43.34-5.57-59.64-16.7l13.28-24.33c15.31,10.31,30.77,15.47,46.36,15.47
				c7.73,0,13.77-1.44,18.12-4.33c4.36-2.89,6.53-6.81,6.53-11.75c0-7.7-5.97-13.4-17.91-17.12l-20.44-6.39
				c-14.33-4.67-24.76-10.31-31.29-16.91c-6.53-6.6-9.8-14.78-9.8-24.54c0-13.06,4.95-23.37,14.86-30.93
				c9.91-7.56,23.29-11.34,40.15-11.34C1312.59,922.84,1330.08,927.03,1346.23,935.42z"/>
			<path class="st0" d="M1436.22,925.1c12.5,0,22.55,3.85,30.14,11.55s11.38,17.39,11.38,29.08s-3.79,21.24-11.38,28.66
				c-7.59,7.42-17.63,11.14-30.14,11.14h-45.31v63.93h-10.75V925.1H1436.22z M1390.91,933.97v62.89h45.31
				c9.27,0,16.68-2.92,22.23-8.76c5.55-5.84,8.32-13.3,8.32-22.37c0-9.21-2.78-16.81-8.32-22.79c-5.55-5.98-12.96-8.97-22.23-8.97
				H1390.91z"/>
			<path class="st0" d="M1601.22,933.97h-82.82v60.42h77.13v8.87h-77.13v57.33h82.82v8.87h-93.57V925.1h93.57V933.97z"/>
			<path class="st0" d="M1736.09,933.97h-54.37v135.48h-10.54V933.97h-54.37v-8.87h119.28V933.97z"/>
		</g>
	</g>
	<path class="st1" d="M406.95,961.87c-6.18,0-12.19-2.5-17.86-7.42c-7.17-6.22-11.75-14.53-14.02-25.41
		c-2.73-13.15-1.28-24.9,4.45-35.91c3.99-7.67,9.27-12.68,16.15-15.3c0.57-0.22,1.15-0.42,1.71-0.6c2.59-0.82,5.19-1.24,7.73-1.24
		c6.67,0,13.09,2.84,19.07,8.45c5.33,5,9.08,11.39,11.79,20.09l0.05,0.19c3.69,13.69,2.89,26.06-2.45,37.82
		c-3.68,8.12-8.8,13.6-15.65,16.76c-1.17,0.54-2.35,1-3.51,1.36C411.93,961.47,409.41,961.87,406.95,961.87z M405.1,887.1
		c-1.41,0-2.88,0.24-4.37,0.71c-0.36,0.11-0.73,0.24-1.09,0.38c-4.23,1.61-7.59,4.91-10.27,10.06c-4.5,8.65-5.62,17.99-3.43,28.53
		c1.75,8.41,5.16,14.72,10.43,19.3c3.64,3.16,7.11,4.7,10.6,4.7c1.35,0,2.7-0.22,4.12-0.67c0.72-0.23,1.46-0.52,2.21-0.86
		c4.32-1.99,7.66-5.68,10.19-11.27c4.22-9.31,4.83-19.21,1.87-30.26c-2.1-6.71-4.89-11.55-8.75-15.18
		C412.7,888.88,408.94,887.1,405.1,887.1z"/>
	<path class="st1" d="M337.88,982.34c-3.87,0-7.83-0.84-11.76-2.49c-9.61-4.03-17.08-10.9-22.86-21.01
		c-6.03-10.55-8.17-20.99-6.55-31.92c1.14-7.65,4.17-13.52,9.26-17.92c2.69-2.32,5.64-4,8.78-5c2.29-0.72,4.73-1.09,7.24-1.09
		c2.59,0,5.31,0.39,8.09,1.16c9.64,2.66,17.61,8.69,24.38,18.41c3.03,4.36,5.59,9.32,6.67,12.95c3.15,10.23,3.67,17.97,1.74,25.89
		c-2.41,9.9-8.74,17.14-17.35,19.86C343.08,981.95,340.51,982.34,337.88,982.34z M322,914c-1.39,0-2.7,0.19-3.9,0.57
		c-1.69,0.53-3.33,1.48-4.87,2.81c-3.05,2.63-4.81,6.18-5.55,11.17c-1.24,8.37,0.46,16.48,5.21,24.79
		c4.52,7.91,10.25,13.24,17.53,16.29c2.56,1.07,5.08,1.62,7.47,1.62h0c1.5,0,2.94-0.22,4.29-0.64c4.83-1.53,8.45-5.87,9.92-11.92
		c1.42-5.82,0.96-11.78-1.54-19.93l-0.05-0.18c-0.74-2.5-2.8-6.42-5.14-9.78c-5.23-7.52-11.2-12.12-18.24-14.06
		C325.32,914.25,323.6,914,322,914z"/>
	<path class="st1" d="M471.78,992.69c-1.28,0-2.6-0.1-3.91-0.29c-7.65-1.12-13.76-5.37-18.17-12.64
		c-10.67-17.58-6.1-43.4,9.98-56.37c2.78-2.25,5.82-3.9,9.03-4.91c2.44-0.77,4.94-1.16,7.43-1.16c7.85,0,15.27,3.93,20.36,10.79
		c2.23,3.01,4.01,6.49,5.43,10.64l0.14,0.46c4.15,17.5,0.74,31.89-10.41,44.04c-3.75,4.09-7.96,6.89-12.49,8.32
		C476.8,992.32,474.31,992.69,471.78,992.69z M476.13,928.4c-1.36,0-2.73,0.22-4.09,0.65c-1.89,0.59-3.7,1.59-5.41,2.97
		c-11.99,9.67-15.41,28.91-7.46,42c2.69,4.43,5.96,6.79,10.3,7.42c0.77,0.11,1.55,0.17,2.29,0.17c1.41,0,2.78-0.2,4.05-0.61
		c2.66-0.84,5.24-2.61,7.67-5.25c8.54-9.31,11.04-20,7.87-33.66c-1.03-2.94-2.26-5.36-3.77-7.38
		C484.58,930.64,480.51,928.4,476.13,928.4z"/>
	<path class="st1" d="M304.42,1045.19c-8.09-0.18-15.32-2.82-22.13-8.07c-10.91-8.45-16.87-18.78-18.21-31.57
		c-0.64-6.17,0.41-11.74,3.11-16.56c3.2-5.71,7.69-9.51,13.32-11.29c2.45-0.78,5.16-1.17,8.05-1.17c1.02,0,2.07,0.05,3.13,0.15
		c9.73,0.89,18.25,5.44,26.05,13.91c4.71,5.11,7.91,10.86,10.41,18.65c0.89,2.93,2.66,10.64-0.09,19.18
		c-2.46,7.6-8.11,13.3-15.5,15.63c-2.42,0.76-4.98,1.15-7.6,1.15H304.42z M288.58,987.61c-1.72,0-3.31,0.22-4.71,0.66
		c-2.94,0.93-5.17,2.88-7.01,6.14c-1.56,2.78-2.14,6.15-1.74,9.98c1,9.62,5.56,17.46,13.96,23.95c4.86,3.76,9.95,5.65,15.56,5.77
		l0.35,0c1.51,0,2.94-0.21,4.24-0.63c1.95-0.61,3.67-1.66,5.12-3.13c1.44-1.46,2.51-3.25,3.19-5.33c1.8-5.58,0.64-10.57,0.06-12.46
		c-1.96-6.14-4.43-10.6-7.98-14.45c-5.86-6.37-12.04-9.77-18.91-10.39C289.96,987.65,289.26,987.61,288.58,987.61z"/>
	<path class="st1" d="M377.75,1101.26c-1.73,0.18-3.45,0.11-5.11-0.18c-11.17-2-19.08-14.14-18.01-27.64
		c1.78-18.1,12.81-56.13,28.49-67.82c3.5-2.6,7.46-4.15,11.77-4.59c8.4-0.85,18.34,2.46,29.52,9.85c1.17,0.77,1.97,1.96,2.25,3.33
		c0.28,1.37,0.01,2.78-0.76,3.95c-0.87,1.32-2.28,2.17-3.85,2.33c-1.2,0.12-2.42-0.18-3.42-0.84c-9.25-6.11-16.62-8.79-22.53-8.19
		c-2.52,0.26-4.71,1.1-6.7,2.58c-11.9,8.86-22.51,42.15-24.3,60.28c-0.62,7.99,3.59,15.36,9.4,16.4c0.7,0.13,1.42,0.15,2.16,0.08
		c3.14-0.32,14.04-3.7,22.57-33.87c0.59-2.09,2.37-3.58,4.52-3.8c0.66-0.07,1.32-0.01,1.96,0.17c1.35,0.38,2.47,1.27,3.16,2.49
		s0.85,2.64,0.47,3.99C400.12,1092.35,387.07,1100.31,377.75,1101.26z"/>
	<path class="st1" d="M382.52,1123.8c-6.47,0.66-13.29-0.36-20.27-3.02l-0.17-0.07c-22.31-9.55-32.09-32.01-27.56-63.26
		c0.35-2.39,2.26-4.23,4.66-4.48c0.43-0.04,0.86-0.03,1.29,0.03c1.39,0.2,2.61,0.93,3.45,2.05c0.84,1.12,1.19,2.51,0.99,3.9
		c-2.67,18.43-1.16,42.43,21.2,52.05c5.33,2.02,10.52,2.81,15.37,2.31c2.97-0.3,5.87-1.09,8.61-2.34
		c15.42-7.04,22.83-26.82,22.91-27.02l0.05-0.14c6.6-16.48,4.33-32.11-0.85-40.31c-1.9-3.01-4.22-4.89-6.2-5.01
		c-0.29-0.02-0.58-0.01-0.88,0.02c-7.33,0.74-15.84,16.45-17.41,28.31c-0.32,2.43-2.24,4.29-4.67,4.54
		c-0.41,0.04-0.82,0.03-1.23-0.02c-2.87-0.38-4.9-3.03-4.52-5.9c1.62-12.26,11.11-35.81,26.67-37.39c0.89-0.09,1.79-0.11,2.69-0.05
		c5.49,0.34,10.61,3.85,14.42,9.88c6.6,10.44,9.7,29.87,1.75,49.75c-0.89,2.42-9.35,24.17-28.33,32.87
		C390.67,1122.28,386.64,1123.38,382.52,1123.8z"/>
	<path class="st1" d="M483.65,1080.71l-0.1,0.16c-6.12,9.53-14.09,15.7-23.68,18.36c-1.81,0.54-4.02,0.95-6.37,1.19
		c-3.07,0.31-9.67,0.62-16.59-1.3c-3-0.83-4.58-4.14-3.4-7.03h0c1.01-2.47,3.71-3.77,6.28-3.06c5.14,1.44,10.2,1.19,12.55,0.95
		c1.73-0.18,3.33-0.46,4.61-0.85c7.11-1.96,13.04-6.61,17.71-13.86c10.63-18.22,1.7-35.91-7.68-47.53
		c-20.1-24.9-59.86-43.95-78.33-42.08c-1.26,0.13-2.41,0.36-3.41,0.69c-9.54,3.14-22.84,20.75-31.61,41.86
		c-0.75,1.79-2.4,3.02-4.32,3.21c-0.86,0.09-1.74-0.04-2.55-0.37c-2.68-1.11-3.94-4.19-2.84-6.87
		c10.17-24.45,25.46-43.67,38.04-47.81c1.6-0.53,3.4-0.9,5.36-1.09c10.23-1.04,24.93,2.55,40.34,9.87c18.99,9,36.29,22.12,47.48,36
		C491.61,1041.55,494.55,1062.14,483.65,1080.71z"/>
	<path class="st1" d="M447.82,1074.21c-2.67,0.27-4.5,0.29-7.57-0.36c-2.84-0.6-4.66-3.39-4.06-6.22c0.47-2.25,2.33-3.92,4.61-4.15
		c0.54-0.05,1.08-0.03,1.61,0.09c2.1,0.44,2.85,0.38,4.39,0.22c2.93-0.3,4.76-1.68,5.58-4.22c2.51-7.79-3.92-21.5-15-26.4
		c-2.65-1.17-3.85-4.28-2.68-6.93c0.76-1.72,2.4-2.91,4.28-3.1c0.9-0.09,1.82,0.05,2.66,0.42c16.46,7.29,24.67,27.07,20.75,39.24
		C460.24,1069.42,455.07,1073.47,447.82,1074.21L447.82,1074.21z"/>
</g>
</svg>
