<?xml version="1.0" encoding="utf-8"?>
<!-- Generator: Adobe Illustrator 28.4.1, SVG Export Plug-In . SVG Version: 6.00 Build 0)  -->
<svg version="1.1" id="Livello_1" xmlns="http://www.w3.org/2000/svg" xmlns:xlink="http://www.w3.org/1999/xlink" x="0px" y="0px"
	 viewBox="0 0 2000 2000" style="enable-background:new 0 0 2000 2000;" xml:space="preserve">
<style type="text/css">
	.st0{fill:#202335;}
	.st1{fill:#F93348;}
</style>
<g>
	<g>
		<path class="st0" d="M480.8,1425.31c10.43,3.4,19.27,7.82,26.53,13.27l-19,23.81c-10.5-7.56-22.71-11.34-36.61-11.34
			c-16.07,0-29.01,4.69-38.82,14.06c-9.81,9.37-14.72,21.77-14.72,37.19c0,15.27,4.83,27.55,14.48,36.85
			c9.65,9.3,22.44,13.95,38.35,13.95c10.35,0,19.85-2.49,28.5-7.48v-26.31h-36.61V1493h70.68v67.12
			c-8.19,7.11-18.04,12.85-29.55,17.23c-11.51,4.38-22.67,6.58-33.49,6.58c-26.73,0-48.2-7.48-64.43-22.45
			c-16.22-14.97-24.33-34.77-24.33-59.41c0-24.64,8.15-44.45,24.45-59.41s37.81-22.45,64.54-22.45
			C460.37,1420.21,470.37,1421.91,480.8,1425.31z"/>
		<path class="st0" d="M659.12,1452.86h-80.88v36.28h75.08v27.44h-75.08v34.69h80.88v30.16H542.09V1422.7h117.03V1452.86z"/>
		<path class="st0" d="M823.65,1581.43h-28.04l-71.15-96.6v96.6h-36.15V1422.7h28.27l70.68,95.47v-95.47h36.38V1581.43z"/>
		<path class="st0" d="M895.49,1581.43h-36.15V1422.7h36.15V1581.43z"/>
		<path class="st0" d="M1063.96,1521.34c0,18.75-6.18,33.86-18.54,45.35c-12.36,11.49-28.58,17.23-48.66,17.23
			s-36.31-5.74-48.66-17.23c-12.36-11.49-18.54-26.61-18.54-45.35v-98.64h36.38v98.64c0,9.52,2.78,17.2,8.34,23.02
			c5.56,5.82,13.05,8.73,22.48,8.73c9.27,0,16.76-2.91,22.48-8.73c5.72-5.82,8.57-13.49,8.57-23.02v-98.64h36.15V1521.34z"/>
		<path class="st0" d="M1209.49,1434.04l-12.75,25.62c-13.9-7.56-28.43-11.34-43.57-11.34c-8.19,0-14.48,1.44-18.89,4.31
			c-4.4,2.87-6.6,6.95-6.6,12.24c0,4.38,1.55,7.94,4.64,10.66c3.09,2.72,7.72,5.06,13.9,7.03l22.48,7.26
			c15.3,4.99,26.88,11.04,34.76,18.14c7.88,7.1,11.82,16.7,11.82,28.8c0,14.82-5.68,26.38-17.03,34.69
			c-11.36,8.31-26.92,12.47-46.7,12.47c-25.8,0-47.66-6.12-65.58-18.37l14.6-26.76c16.84,11.34,33.83,17.01,50.98,17.01
			c8.5,0,15.14-1.59,19.93-4.76c4.79-3.18,7.18-7.48,7.18-12.93c0-8.47-6.57-14.74-19.7-18.82l-22.48-7.03
			c-15.76-5.14-27.23-11.34-34.41-18.59c-7.18-7.26-10.78-16.25-10.78-26.99c0-14.36,5.45-25.7,16.34-34.01
			c10.89-8.31,25.61-12.47,44.15-12.47C1172.49,1420.21,1191.72,1424.82,1209.49,1434.04z"/>
		<path class="st0" d="M1308.44,1422.7c13.75,0,24.8,4.23,33.14,12.7c8.34,8.47,12.51,19.12,12.51,31.97s-4.17,23.36-12.51,31.52
			c-8.34,8.16-19.39,12.25-33.14,12.25h-49.83v70.3h-11.82V1422.7H1308.44z M1258.61,1432.45v69.16h49.83
			c10.2,0,18.35-3.21,24.45-9.64c6.1-6.42,9.15-14.63,9.15-24.6c0-10.13-3.05-18.48-9.15-25.06c-6.1-6.58-14.25-9.86-24.45-9.86
			H1258.61z"/>
		<path class="st0" d="M1489.89,1432.45h-91.07v66.44h84.82v9.75h-84.82v63.04h91.07v9.75h-102.89V1422.7h102.89V1432.45z"/>
		<path class="st0" d="M1638.2,1432.45h-59.79v148.98h-11.59v-148.98h-59.79v-9.75h131.16V1432.45z"/>
	</g>
</g>
<g>
	<path class="st1" d="M1013.04,700.29c-22.32,0-44.02-9.01-64.5-26.79c-25.9-22.47-42.46-52.49-50.63-91.77
		c-9.88-47.5-4.62-89.92,16.08-129.69c14.42-27.7,33.5-45.78,58.34-55.27c2.06-0.79,4.14-1.51,6.17-2.15
		c9.36-2.96,18.75-4.46,27.91-4.46c24.11,0,47.28,10.27,68.88,30.53c19.26,18.07,32.79,41.13,42.57,72.57l0.19,0.67
		c13.33,49.46,10.43,94.12-8.84,136.61c-13.3,29.33-31.79,49.12-56.51,60.53c-4.23,1.95-8.49,3.6-12.68,4.93
		C1031,698.84,1021.93,700.29,1013.04,700.29z M1006.33,430.22c-5.08,0-10.39,0.86-15.78,2.57c-1.32,0.41-2.64,0.88-3.95,1.38
		c-15.27,5.83-27.4,17.72-37.1,36.35c-16.26,31.25-20.31,64.96-12.39,103.06c6.32,30.39,18.64,53.18,37.67,69.69
		c13.16,11.42,25.69,16.97,38.29,16.97c4.88,0,9.75-0.79,14.88-2.42c2.59-0.82,5.28-1.86,7.99-3.11
		c15.62-7.21,27.66-20.52,36.82-40.71c15.25-33.61,17.45-69.37,6.75-109.31c-7.59-24.24-17.64-41.72-31.6-54.81
		C1033.8,436.65,1020.2,430.22,1006.33,430.22z"/>
	<path class="st1" d="M763.58,774.24c-13.98,0-28.27-3.02-42.46-8.98c-34.7-14.56-61.71-39.39-82.57-75.9
		c-21.78-38.12-29.52-75.82-23.66-115.28c4.11-27.65,15.05-48.83,33.46-64.74c9.71-8.39,20.38-14.46,31.71-18.05
		c8.27-2.61,17.07-3.93,26.15-3.93c9.35,0,19.17,1.4,29.2,4.17c34.8,9.62,63.61,31.37,88.06,66.51
		c10.96,15.74,20.18,33.66,24.07,46.76c11.37,36.95,13.24,64.92,6.27,93.53c-8.72,35.75-31.57,61.89-62.68,71.72
		C782.33,772.83,773.07,774.24,763.58,774.24z M706.21,527.4c-5.02,0-9.76,0.7-14.1,2.07c-6.11,1.93-12.03,5.35-17.6,10.16
		c-11,9.51-17.37,22.32-20.05,40.34c-4.49,30.23,1.67,59.52,18.82,89.54c16.33,28.57,37.03,47.82,63.3,58.85
		c9.25,3.88,18.33,5.85,26.99,5.85h0c5.4,0,10.61-0.78,15.48-2.32c17.46-5.51,30.52-21.2,35.84-43.04
		c5.13-21.04,3.47-42.56-5.55-71.97l-0.2-0.64c-2.67-9.02-10.12-23.2-18.56-35.33c-18.9-27.15-40.45-43.77-65.87-50.79
		C718.2,528.31,711.97,527.4,706.21,527.4z"/>
	<path class="st1" d="M1247.17,811.62c-4.63,0-9.39-0.35-14.12-1.05c-27.62-4.05-49.7-19.41-65.62-45.64
		c-38.55-63.51-22.05-156.76,36.04-203.61c10.05-8.11,21.03-14.08,32.61-17.74c8.82-2.79,17.85-4.2,26.84-4.2
		c28.37,0,55.17,14.2,73.53,38.96c8.06,10.89,14.48,23.45,19.63,38.42l0.49,1.67c14.99,63.22,2.67,115.18-37.6,159.06
		c-13.56,14.77-28.74,24.88-45.13,30.06C1265.3,810.26,1256.33,811.62,1247.17,811.62z M1262.9,579.42c-4.9,0-9.87,0.78-14.77,2.33
		c-6.81,2.15-13.38,5.76-19.53,10.72c-43.31,34.94-55.66,104.4-26.96,151.69c9.71,15.99,21.53,24.51,37.22,26.81
		c2.8,0.41,5.58,0.62,8.28,0.62c5.1,0,10.02-0.74,14.64-2.2c9.62-3.04,18.94-9.42,27.7-18.96c30.85-33.61,39.88-72.25,28.42-121.58
		c-3.73-10.62-8.18-19.35-13.61-26.66C1293.41,587.5,1278.71,579.42,1262.9,579.42z"/>
	<path class="st1" d="M642.71,1001.24c-29.23-0.64-55.34-10.18-79.92-29.16c-39.42-30.53-60.93-67.83-65.76-114.03
		c-2.32-22.28,1.47-42.41,11.24-59.81c11.57-20.62,27.76-34.34,48.13-40.77c8.85-2.8,18.62-4.22,29.06-4.22
		c3.67,0,7.47,0.18,11.3,0.52c35.13,3.21,65.91,19.65,94.09,50.25c16.99,18.45,28.59,39.22,37.59,67.36
		c3.23,10.6,9.62,38.44-0.31,69.26c-8.88,27.45-29.28,48.02-55.98,56.46c-8.74,2.76-17.98,4.16-27.44,4.16H642.71z M585.49,793.26
		c-6.23,0-11.96,0.8-17.02,2.37c-10.6,3.35-18.66,10.4-25.34,22.19c-5.62,10.06-7.73,22.2-6.28,36.06
		c3.6,34.76,20.09,63.05,50.41,86.49c17.54,13.59,35.93,20.4,56.2,20.82l1.26,0.02c5.46,0,10.61-0.77,15.31-2.28
		c7.05-2.2,13.26-6.01,18.49-11.32c5.19-5.27,9.06-11.75,11.51-19.26c6.5-20.15,2.31-38.18,0.21-44.99
		c-7.1-22.19-15.99-38.3-28.81-52.19c-21.16-23-43.5-35.28-68.3-37.52C590.49,793.39,587.93,793.26,585.49,793.26z"/>
	<path class="st1" d="M907.55,1203.74c-6.23,0.63-12.44,0.41-18.46-0.66c-40.35-7.24-68.92-51.09-65.06-99.83
		c6.42-65.39,46.26-202.75,102.9-244.94c12.63-9.41,26.94-14.98,42.52-16.57c30.35-3.08,66.23,8.89,106.63,35.58
		c4.23,2.79,7.12,7.06,8.13,12.03s0.04,10.03-2.76,14.26c-3.15,4.77-8.22,7.84-13.92,8.42c-4.33,0.44-8.73-0.64-12.37-3.05
		c-33.41-22.07-60.03-31.74-81.37-29.57c-9.1,0.92-17.02,3.98-24.2,9.33c-42.99,32.02-81.29,152.25-87.76,217.73
		c-2.24,28.87,12.98,55.49,33.94,59.25c2.52,0.46,5.14,0.54,7.79,0.28c11.33-1.15,50.7-13.37,81.53-122.33
		c2.13-7.54,8.55-12.92,16.34-13.71c2.38-0.24,4.76-0.03,7.08,0.62c4.88,1.38,8.92,4.57,11.4,9c2.47,4.42,3.08,9.55,1.7,14.42
		C988.36,1171.56,941.23,1200.32,907.55,1203.74z"/>
	<path class="st1" d="M924.78,1285.16c-23.36,2.37-47.99-1.3-73.19-10.91l-0.62-0.25c-80.57-34.49-115.89-115.62-99.55-228.48
		c1.25-8.64,8.17-15.29,16.84-16.17c1.55-0.16,3.12-0.12,4.67,0.11c5.01,0.73,9.44,3.36,12.48,7.42c3.03,4.06,4.3,9.06,3.58,14.07
		c-9.64,66.58-4.18,153.25,76.57,188c19.26,7.3,37.99,10.13,55.52,8.35c10.73-1.09,21.19-3.93,31.08-8.46
		c55.68-25.44,82.47-96.88,82.73-97.59l0.19-0.5c23.85-59.51,15.64-115.98-3.07-145.59c-6.87-10.88-15.24-17.64-22.39-18.09
		c-1.04-0.06-2.1-0.04-3.16,0.07c-26.47,2.69-57.21,59.43-62.87,102.27c-1.16,8.76-8.09,15.51-16.87,16.4
		c-1.47,0.15-2.96,0.12-4.43-0.07c-10.37-1.37-17.69-10.93-16.32-21.3c5.86-44.28,40.12-129.35,96.32-135.05
		c3.2-0.33,6.47-0.39,9.72-0.18c19.83,1.24,38.34,13.92,52.09,35.69c23.82,37.71,35.02,107.9,6.32,179.69
		c-3.22,8.75-33.78,87.29-102.32,118.71C954.24,1279.66,939.66,1283.65,924.78,1285.16z"/>
	<path class="st1" d="M1290.07,1129.53l-0.36,0.57c-22.11,34.43-50.87,56.71-85.52,66.3c-6.55,1.95-14.5,3.42-23.02,4.28
		c-11.09,1.13-34.91,2.25-59.91-4.68c-10.85-3.01-16.55-14.95-12.3-25.38l0,0c3.64-8.92,13.4-13.63,22.68-11.04
		c18.57,5.19,36.85,4.29,45.33,3.43c6.26-0.64,12.03-1.68,16.65-3.06c25.67-7.07,47.09-23.89,63.96-50.05
		c38.41-65.82,6.15-129.69-27.73-171.67c-72.58-89.93-216.2-158.74-282.9-151.97c-4.54,0.46-8.72,1.3-12.32,2.49
		c-34.46,11.36-82.49,74.93-114.17,151.2c-2.69,6.48-8.66,10.89-15.62,11.6c-3.11,0.32-6.3-0.15-9.2-1.34
		c-9.67-4.02-14.24-15.14-10.25-24.81c36.74-88.32,91.96-157.72,137.39-172.67c5.76-1.91,12.29-3.23,19.37-3.95
		c36.93-3.75,90.04,9.23,145.71,35.64c68.58,32.5,131.09,79.89,171.51,130.02C1318.81,988.08,1329.42,1062.45,1290.07,1129.53z"/>
	<path class="st1" d="M1160.66,1106.05c-9.63,0.98-16.24,1.03-27.34-1.3c-10.24-2.16-16.82-12.24-14.68-22.47
		c1.71-8.13,8.4-14.15,16.65-14.99c1.94-0.2,3.89-0.09,5.82,0.31c7.57,1.59,10.3,1.38,15.84,0.81c10.59-1.08,17.18-6.06,20.14-15.25
		c9.06-28.12-14.16-77.65-54.19-95.37c-9.57-4.24-13.91-15.47-9.67-25.04c2.75-6.22,8.67-10.51,15.44-11.2
		c3.26-0.33,6.58,0.2,9.59,1.53c59.45,26.32,89.11,97.79,74.95,141.72C1205.5,1088.74,1186.84,1103.39,1160.66,1106.05
		L1160.66,1106.05z"/>
</g>
</svg>
