<svg width="156" height="29" viewBox="0 0 156 29" fill="none" xmlns="http://www.w3.org/2000/svg">
<g clip-path="url(#clip0_31129_14039)">
<mask id="path-1-outside-1_31129_14039" maskUnits="userSpaceOnUse" x="31.2978" y="5.58594" width="122" height="17" fill="black">
<rect fill="white" x="31.2978" y="5.58594" width="122" height="17"/>
<path d="M39.86 16.6971V14.1693H46.6429V19.604C44.8524 21.0575 42.6827 21.7737 40.176 21.7737C38.0063 21.7737 36.1316 21.0364 34.5938 19.5619C33.0561 18.0663 32.2978 16.2758 32.2978 14.1903C32.2978 12.1049 33.0561 10.3144 34.5938 8.83987C36.1316 7.34427 38.0063 6.607 40.176 6.607C42.5774 6.607 44.5575 7.32321 46.1163 8.73455L44.2204 10.841C43.1672 9.89311 41.8191 9.42969 40.176 9.42969C38.8489 9.42969 37.7325 9.89311 36.7846 10.841C35.8366 11.7679 35.3732 12.8843 35.3732 14.1903C35.3732 15.5596 35.8366 16.7392 36.7635 17.6871C37.7114 18.635 38.8489 19.0984 40.176 19.0984C41.461 19.0984 42.6195 18.7614 43.6306 18.0873V16.6971H39.86Z"/>
<path d="M52.0207 15.6649V18.9931H60.4887V21.6052H49.0927V6.75446H60.0464V9.36649H52.0207V13.1371H58.7404V15.6649H52.0207Z"/>
<path d="M73.0276 16.1072V6.75446H76.0609V21.6052H74.5864L65.7181 12.2524V21.6052H62.7058V6.75446H64.1803L73.0276 16.1072Z"/>
<path d="M78.9947 6.75446H82.028V21.6052H78.9947V6.75446Z"/>
<path d="M95.0023 6.75446H97.9514V15.6438C97.9514 17.4343 97.3615 18.8878 96.203 20.0464C95.0444 21.2049 93.4435 21.7737 91.3581 21.7737C89.2726 21.7737 87.6717 21.2049 86.5132 20.0464C85.3757 18.8878 84.8069 17.4343 84.8069 15.6438V6.75446H87.756V14.8644C87.756 17.6239 88.9567 18.9931 91.3581 18.9931C93.7805 18.9931 95.0023 17.6239 95.0023 14.8644V6.75446Z"/>
<path d="M106.5 12.8001C108.291 13.2003 109.639 13.7269 110.545 14.3799C111.45 15.0329 111.893 15.9808 111.893 17.2447C111.893 18.6561 111.366 19.7725 110.313 20.594C109.281 21.3945 107.89 21.7947 106.142 21.7947C104.836 21.7947 103.762 21.7105 102.94 21.5209C102.119 21.3313 101.129 20.9521 99.9701 20.3834L101.065 18.0452C101.992 18.4876 102.835 18.8035 103.593 18.951C104.373 19.0984 105.257 19.1827 106.247 19.1827C107.869 19.1827 108.838 18.5929 108.838 17.4975C108.838 16.5496 107.975 16.0651 105.679 15.5385C104.267 15.2225 103.446 14.9908 102.414 14.5063C100.96 13.8322 100.223 12.779 100.16 11.0517C100.16 9.7246 100.644 8.65029 101.634 7.82876C102.624 7.00723 103.972 6.58594 105.637 6.58594C107.596 6.58594 109.491 6.98617 111.324 7.78663L110.102 10.188C108.522 9.53501 107.027 9.19798 105.573 9.19798C104.078 9.19798 103.214 9.85099 103.214 10.7989C103.214 11.81 104.12 12.2734 106.5 12.8001Z"/>
<path d="M115.45 21.6052V6.75446H121.116C122.907 6.75446 124.213 7.19682 125.034 8.1026C125.856 8.98733 126.277 10.1248 126.277 11.494C126.277 14.8855 124.107 16.4864 120.59 16.4864H116.229V21.6052H115.45ZM116.229 7.49173V15.7702H120.547C123.602 15.7702 125.456 14.401 125.456 11.5151C125.456 10.3565 125.097 9.38756 124.402 8.62922C123.707 7.87089 122.591 7.49173 121.053 7.49173H116.229Z"/>
<path d="M129.801 14.7591V20.8679H139.238V21.6052H129.022V6.75446H138.796V7.49173H129.801V14.0429H137.49V14.7591H129.801Z"/>
<path d="M141.361 6.75446H152.947V7.49173H147.533V21.6052H146.754V7.49173H141.361V6.75446Z"/>
</mask>
<path d="M39.86 16.6971V14.1693H46.6429V19.604C44.8524 21.0575 42.6827 21.7737 40.176 21.7737C38.0063 21.7737 36.1316 21.0364 34.5938 19.5619C33.0561 18.0663 32.2978 16.2758 32.2978 14.1903C32.2978 12.1049 33.0561 10.3144 34.5938 8.83987C36.1316 7.34427 38.0063 6.607 40.176 6.607C42.5774 6.607 44.5575 7.32321 46.1163 8.73455L44.2204 10.841C43.1672 9.89311 41.8191 9.42969 40.176 9.42969C38.8489 9.42969 37.7325 9.89311 36.7846 10.841C35.8366 11.7679 35.3732 12.8843 35.3732 14.1903C35.3732 15.5596 35.8366 16.7392 36.7635 17.6871C37.7114 18.635 38.8489 19.0984 40.176 19.0984C41.461 19.0984 42.6195 18.7614 43.6306 18.0873V16.6971H39.86Z" fill="#2B2B2B"/>
<path d="M52.0207 15.6649V18.9931H60.4887V21.6052H49.0927V6.75446H60.0464V9.36649H52.0207V13.1371H58.7404V15.6649H52.0207Z" fill="#2B2B2B"/>
<path d="M73.0276 16.1072V6.75446H76.0609V21.6052H74.5864L65.7181 12.2524V21.6052H62.7058V6.75446H64.1803L73.0276 16.1072Z" fill="#2B2B2B"/>
<path d="M78.9947 6.75446H82.028V21.6052H78.9947V6.75446Z" fill="#2B2B2B"/>
<path d="M95.0023 6.75446H97.9514V15.6438C97.9514 17.4343 97.3615 18.8878 96.203 20.0464C95.0444 21.2049 93.4435 21.7737 91.3581 21.7737C89.2726 21.7737 87.6717 21.2049 86.5132 20.0464C85.3757 18.8878 84.8069 17.4343 84.8069 15.6438V6.75446H87.756V14.8644C87.756 17.6239 88.9567 18.9931 91.3581 18.9931C93.7805 18.9931 95.0023 17.6239 95.0023 14.8644V6.75446Z" fill="#2B2B2B"/>
<path d="M106.5 12.8001C108.291 13.2003 109.639 13.7269 110.545 14.3799C111.45 15.0329 111.893 15.9808 111.893 17.2447C111.893 18.6561 111.366 19.7725 110.313 20.594C109.281 21.3945 107.89 21.7947 106.142 21.7947C104.836 21.7947 103.762 21.7105 102.94 21.5209C102.119 21.3313 101.129 20.9521 99.9701 20.3834L101.065 18.0452C101.992 18.4876 102.835 18.8035 103.593 18.951C104.373 19.0984 105.257 19.1827 106.247 19.1827C107.869 19.1827 108.838 18.5929 108.838 17.4975C108.838 16.5496 107.975 16.0651 105.679 15.5385C104.267 15.2225 103.446 14.9908 102.414 14.5063C100.96 13.8322 100.223 12.779 100.16 11.0517C100.16 9.7246 100.644 8.65029 101.634 7.82876C102.624 7.00723 103.972 6.58594 105.637 6.58594C107.596 6.58594 109.491 6.98617 111.324 7.78663L110.102 10.188C108.522 9.53501 107.027 9.19798 105.573 9.19798C104.078 9.19798 103.214 9.85099 103.214 10.7989C103.214 11.81 104.12 12.2734 106.5 12.8001Z" fill="#2B2B2B"/>
<path d="M115.45 21.6052V6.75446H121.116C122.907 6.75446 124.213 7.19682 125.034 8.1026C125.856 8.98733 126.277 10.1248 126.277 11.494C126.277 14.8855 124.107 16.4864 120.59 16.4864H116.229V21.6052H115.45ZM116.229 7.49173V15.7702H120.547C123.602 15.7702 125.456 14.401 125.456 11.5151C125.456 10.3565 125.097 9.38756 124.402 8.62922C123.707 7.87089 122.591 7.49173 121.053 7.49173H116.229Z" fill="#2B2B2B"/>
<path d="M129.801 14.7591V20.8679H139.238V21.6052H129.022V6.75446H138.796V7.49173H129.801V14.0429H137.49V14.7591H129.801Z" fill="#2B2B2B"/>
<path d="M141.361 6.75446H152.947V7.49173H147.533V21.6052H146.754V7.49173H141.361V6.75446Z" fill="#2B2B2B"/>
<path d="M39.86 16.6971V14.1693H46.6429V19.604C44.8524 21.0575 42.6827 21.7737 40.176 21.7737C38.0063 21.7737 36.1316 21.0364 34.5938 19.5619C33.0561 18.0663 32.2978 16.2758 32.2978 14.1903C32.2978 12.1049 33.0561 10.3144 34.5938 8.83987C36.1316 7.34427 38.0063 6.607 40.176 6.607C42.5774 6.607 44.5575 7.32321 46.1163 8.73455L44.2204 10.841C43.1672 9.89311 41.8191 9.42969 40.176 9.42969C38.8489 9.42969 37.7325 9.89311 36.7846 10.841C35.8366 11.7679 35.3732 12.8843 35.3732 14.1903C35.3732 15.5596 35.8366 16.7392 36.7635 17.6871C37.7114 18.635 38.8489 19.0984 40.176 19.0984C41.461 19.0984 42.6195 18.7614 43.6306 18.0873V16.6971H39.86Z" stroke="#2B2B2B" stroke-width="0.124444" mask="url(#path-1-outside-1_31129_14039)"/>
<path d="M52.0207 15.6649V18.9931H60.4887V21.6052H49.0927V6.75446H60.0464V9.36649H52.0207V13.1371H58.7404V15.6649H52.0207Z" stroke="#2B2B2B" stroke-width="0.124444" mask="url(#path-1-outside-1_31129_14039)"/>
<path d="M73.0276 16.1072V6.75446H76.0609V21.6052H74.5864L65.7181 12.2524V21.6052H62.7058V6.75446H64.1803L73.0276 16.1072Z" stroke="#2B2B2B" stroke-width="0.124444" mask="url(#path-1-outside-1_31129_14039)"/>
<path d="M78.9947 6.75446H82.028V21.6052H78.9947V6.75446Z" stroke="#2B2B2B" stroke-width="0.124444" mask="url(#path-1-outside-1_31129_14039)"/>
<path d="M95.0023 6.75446H97.9514V15.6438C97.9514 17.4343 97.3615 18.8878 96.203 20.0464C95.0444 21.2049 93.4435 21.7737 91.3581 21.7737C89.2726 21.7737 87.6717 21.2049 86.5132 20.0464C85.3757 18.8878 84.8069 17.4343 84.8069 15.6438V6.75446H87.756V14.8644C87.756 17.6239 88.9567 18.9931 91.3581 18.9931C93.7805 18.9931 95.0023 17.6239 95.0023 14.8644V6.75446Z" stroke="#2B2B2B" stroke-width="0.124444" mask="url(#path-1-outside-1_31129_14039)"/>
<path d="M106.5 12.8001C108.291 13.2003 109.639 13.7269 110.545 14.3799C111.45 15.0329 111.893 15.9808 111.893 17.2447C111.893 18.6561 111.366 19.7725 110.313 20.594C109.281 21.3945 107.89 21.7947 106.142 21.7947C104.836 21.7947 103.762 21.7105 102.94 21.5209C102.119 21.3313 101.129 20.9521 99.9701 20.3834L101.065 18.0452C101.992 18.4876 102.835 18.8035 103.593 18.951C104.373 19.0984 105.257 19.1827 106.247 19.1827C107.869 19.1827 108.838 18.5929 108.838 17.4975C108.838 16.5496 107.975 16.0651 105.679 15.5385C104.267 15.2225 103.446 14.9908 102.414 14.5063C100.96 13.8322 100.223 12.779 100.16 11.0517C100.16 9.7246 100.644 8.65029 101.634 7.82876C102.624 7.00723 103.972 6.58594 105.637 6.58594C107.596 6.58594 109.491 6.98617 111.324 7.78663L110.102 10.188C108.522 9.53501 107.027 9.19798 105.573 9.19798C104.078 9.19798 103.214 9.85099 103.214 10.7989C103.214 11.81 104.12 12.2734 106.5 12.8001Z" stroke="#2B2B2B" stroke-width="0.124444" mask="url(#path-1-outside-1_31129_14039)"/>
<path d="M115.45 21.6052V6.75446H121.116C122.907 6.75446 124.213 7.19682 125.034 8.1026C125.856 8.98733 126.277 10.1248 126.277 11.494C126.277 14.8855 124.107 16.4864 120.59 16.4864H116.229V21.6052H115.45ZM116.229 7.49173V15.7702H120.547C123.602 15.7702 125.456 14.401 125.456 11.5151C125.456 10.3565 125.097 9.38756 124.402 8.62922C123.707 7.87089 122.591 7.49173 121.053 7.49173H116.229Z" stroke="#2B2B2B" stroke-width="0.124444" mask="url(#path-1-outside-1_31129_14039)"/>
<path d="M129.801 14.7591V20.8679H139.238V21.6052H129.022V6.75446H138.796V7.49173H129.801V14.0429H137.49V14.7591H129.801Z" stroke="#2B2B2B" stroke-width="0.124444" mask="url(#path-1-outside-1_31129_14039)"/>
<path d="M141.361 6.75446H152.947V7.49173H147.533V21.6052H146.754V7.49173H141.361V6.75446Z" stroke="#2B2B2B" stroke-width="0.124444" mask="url(#path-1-outside-1_31129_14039)"/>
<path d="M16.1476 9.72587C15.4501 9.72587 14.7717 9.44275 14.1316 8.88556C13.3223 8.18115 12.8053 7.24004 12.5491 6.00789C12.2409 4.51866 12.4046 3.18798 13.0514 1.9411C13.5018 1.07248 14.0978 0.505096 14.8744 0.208382C14.9387 0.183467 15.0042 0.160813 15.0674 0.140428C15.3597 0.0475637 15.6532 0 15.9399 0C16.6928 0 17.4175 0.32163 18.0925 0.95696C18.6942 1.52321 19.1175 2.24688 19.4234 3.23215L19.429 3.25366C19.8455 4.80405 19.7552 6.20494 19.1525 7.53676C18.7371 8.45635 18.1591 9.07695 17.3859 9.43482C17.2538 9.49598 17.1206 9.54807 16.9897 9.58884C16.7098 9.68057 16.4253 9.72587 16.1476 9.72587ZM15.9388 1.2582C15.7797 1.2582 15.6137 1.28538 15.4455 1.33861C15.4049 1.35107 15.3631 1.36579 15.3225 1.38165C14.845 1.56398 14.4658 1.9377 14.1632 2.52094C13.6553 3.50055 13.5289 4.5583 13.7761 5.75195C13.9736 6.70438 14.3585 7.41898 14.9534 7.93767C15.3643 8.29554 15.756 8.46994 16.1499 8.46994C16.3023 8.46994 16.4547 8.44502 16.615 8.39406C16.6962 8.36801 16.7798 8.33517 16.8644 8.29667C17.352 8.0713 17.7291 7.65341 18.0146 7.02034C18.491 5.96599 18.5598 4.84482 18.2257 3.59341C17.9887 2.8335 17.6737 2.28538 17.238 1.87428C16.7967 1.45979 16.3723 1.2582 15.9388 1.2582Z" fill="#D74242"/>
<path d="M8.35079 12.0442C7.91395 12.0442 7.46695 11.9491 7.02334 11.7623C5.93858 11.3059 5.09539 10.5278 4.44295 9.38288C3.7623 8.1881 3.52073 7.00577 3.7036 5.76795C3.83228 4.90159 4.1743 4.23682 4.74885 3.73852C5.05249 3.47578 5.38548 3.28552 5.73992 3.17227C5.99841 3.09073 6.27383 3.04883 6.55716 3.04883C6.84951 3.04883 7.15654 3.093 7.47034 3.1802C8.55848 3.48145 9.45812 4.16434 10.2223 5.26512C10.5643 5.75889 10.8533 6.32061 10.9752 6.73171C11.3308 7.89025 11.3895 8.7668 11.1716 9.66374C10.8996 10.7849 10.1851 11.6048 9.21318 11.9129C8.93776 12.0001 8.64766 12.0442 8.35079 12.0442ZM6.55829 4.30477C6.40139 4.30477 6.25352 4.32629 6.11806 4.36932C5.9273 4.42934 5.74218 4.53693 5.56835 4.68755C5.22407 4.9854 5.0254 5.38743 4.94187 5.95255C4.8019 6.90045 4.9938 7.81891 5.52997 8.76001C6.04018 9.65582 6.68697 10.2594 7.50872 10.6048C7.79769 10.726 8.08214 10.7883 8.35192 10.7883C8.52124 10.7883 8.68378 10.7634 8.83617 10.7158C9.38137 10.5426 9.78999 10.0511 9.95592 9.36589C10.1162 8.70678 10.0643 8.03181 9.78208 7.10883L9.77644 7.08845C9.69291 6.80532 9.46038 6.36138 9.19625 5.98086C8.60589 5.12922 7.93201 4.60828 7.13735 4.38857C6.93304 4.33308 6.73889 4.30477 6.55829 4.30477Z" fill="#D74242"/>
<path d="M23.4652 13.2163C23.3208 13.2163 23.1718 13.205 23.0239 13.1834C22.1604 13.0566 21.4707 12.5753 20.9729 11.752C19.7685 9.76104 20.2843 6.83694 22.0994 5.36809C22.4132 5.11328 22.7564 4.92641 23.1187 4.81203C23.3941 4.72483 23.6763 4.68066 23.9574 4.68066C24.8435 4.68066 25.681 5.12573 26.2556 5.90262C26.5073 6.24351 26.7082 6.63762 26.8685 7.1076L26.8843 7.1597C27.3528 9.14157 26.9678 10.7712 25.7093 12.1472C25.286 12.6104 24.8107 12.9275 24.2994 13.0894C24.0319 13.1744 23.7508 13.2163 23.4652 13.2163ZM23.9563 5.93547C23.8027 5.93547 23.6481 5.96038 23.4946 6.00908C23.2812 6.0759 23.0769 6.18915 22.8839 6.34543C21.5305 7.44056 21.1445 9.61948 22.0418 11.1019C22.3455 11.6036 22.7146 11.8709 23.2045 11.9422C23.2914 11.9547 23.3794 11.9615 23.463 11.9615C23.6221 11.9615 23.7768 11.9388 23.9201 11.8924C24.2204 11.7973 24.5116 11.5968 24.7859 11.2978C25.7499 10.2435 26.0321 9.03285 25.6743 7.48586C25.558 7.1529 25.4192 6.87884 25.2487 6.65008C24.9101 6.18915 24.4507 5.93547 23.9563 5.93547Z" fill="#D74242"/>
<path d="M4.57406 19.1619C3.66087 19.1416 2.84476 18.8426 2.07606 18.248C0.844562 17.2911 0.171806 16.1212 0.020549 14.6727C-0.051693 13.974 0.0668308 13.3432 0.371602 12.7973C0.732812 12.1507 1.23964 11.7203 1.87514 11.5187C2.15169 11.4304 2.45759 11.3862 2.78381 11.3862C2.89894 11.3862 3.01746 11.3919 3.13712 11.4032C4.23542 11.504 5.19714 12.0193 6.07759 12.9785C6.60924 13.5572 6.97046 14.2084 7.25265 15.0906C7.35311 15.4224 7.55291 16.2956 7.24249 17.2628C6.96481 18.1234 6.32705 18.769 5.49288 19.0328C5.21972 19.1189 4.93075 19.1631 4.63501 19.1631H4.57406V19.1619ZM2.78606 12.641C2.59191 12.641 2.41244 12.6659 2.25441 12.7158C1.92255 12.8211 1.67083 13.0419 1.46313 13.4111C1.28704 13.726 1.22157 14.1076 1.26672 14.5414C1.3796 15.6308 1.89433 16.5187 2.8425 17.2537C3.39109 17.6795 3.96564 17.8935 4.59889 17.9071H4.63839C4.80884 17.9071 4.97026 17.8834 5.117 17.8358C5.33711 17.7667 5.53126 17.6478 5.69493 17.4813C5.85748 17.316 5.97826 17.1133 6.05502 16.8777C6.2582 16.2458 6.12726 15.6807 6.06179 15.4666C5.84055 14.7713 5.56174 14.2662 5.16102 13.8302C4.49955 13.1088 3.80197 12.7237 3.02649 12.6535C2.94184 12.6456 2.86282 12.641 2.78606 12.641Z" fill="#D74242"/>
<path d="M12.8515 25.5118C12.6562 25.5321 12.4621 25.5242 12.2747 25.4914C11.0139 25.2649 10.121 23.89 10.2418 22.3611C10.4427 20.3113 11.6878 16.0045 13.4577 14.6806C13.8528 14.3861 14.2998 14.2106 14.7863 14.1608C15.7344 14.0645 16.8564 14.4393 18.1184 15.2763C18.2505 15.3635 18.3408 15.4982 18.3724 15.6534C18.404 15.8085 18.3735 15.9682 18.2866 16.1007C18.1884 16.2502 18.0292 16.3465 17.852 16.3646C17.7166 16.3782 17.5789 16.3442 17.466 16.2695C16.4219 15.5775 15.5899 15.274 14.9228 15.3419C14.6384 15.3714 14.3912 15.4665 14.1666 15.6341C12.8233 16.6375 11.6257 20.4076 11.4236 22.4608C11.3536 23.3657 11.8289 24.2003 12.4847 24.3181C12.5637 24.3328 12.645 24.3351 12.7285 24.3272C13.0829 24.2909 14.3133 23.9082 15.2761 20.4914C15.3427 20.2547 15.5437 20.086 15.7864 20.0611C15.8609 20.0531 15.9354 20.0599 16.0076 20.0803C16.16 20.1233 16.2864 20.2241 16.3643 20.3623C16.4422 20.5005 16.4602 20.6613 16.4173 20.8142C15.3766 24.5027 13.9035 25.4042 12.8515 25.5118Z" fill="#D74242"/>
<path d="M13.3898 28.0641C12.6595 28.1389 11.8897 28.0234 11.1018 27.7221L11.0826 27.7142C8.56428 26.6327 7.46033 24.0891 7.97167 20.55C8.01118 20.2793 8.22677 20.071 8.49768 20.0427C8.54622 20.0381 8.59476 20.0393 8.64329 20.0461C8.80019 20.0687 8.93791 20.1514 9.03272 20.2782C9.12754 20.4051 9.16705 20.5625 9.14447 20.7199C8.84309 22.8071 9.01353 25.5251 11.5375 26.6145C12.1391 26.8433 12.725 26.9328 13.2724 26.8761C13.6077 26.8422 13.935 26.7527 14.2443 26.6111C15.9849 25.8139 16.8213 23.5738 16.8303 23.5511L16.836 23.5353C17.581 21.6689 17.3248 19.8988 16.74 18.9702C16.5256 18.6293 16.2637 18.4164 16.0402 18.4028C16.0075 18.4005 15.9747 18.4017 15.9409 18.4051C15.1135 18.4889 14.1529 20.268 13.9757 21.6112C13.9395 21.8864 13.7228 22.097 13.4485 22.1253C13.4022 22.1299 13.356 22.1287 13.3097 22.1231C12.9857 22.08 12.7566 21.7799 12.7995 21.4549C12.9823 20.0664 14.0535 17.3994 15.8099 17.2205C15.9104 17.2103 16.012 17.208 16.1136 17.2148C16.7333 17.2533 17.3112 17.6508 17.7413 18.3337C18.4863 19.5161 18.8362 21.7165 17.9388 23.9679C17.8383 24.242 16.8834 26.7051 14.741 27.6904C14.3098 27.892 13.8549 28.0166 13.3898 28.0641Z" fill="#D74242"/>
<path d="M24.8052 23.1845L24.7939 23.2026C24.1031 24.2819 23.2034 24.9806 22.1209 25.2819C21.9166 25.343 21.6672 25.3895 21.4019 25.4167C21.0554 25.4518 20.3104 25.4869 19.5293 25.2694C19.1906 25.1754 19.0123 24.8006 19.1455 24.4733C19.2595 24.1935 19.5642 24.0463 19.8543 24.1267C20.4345 24.2898 21.0057 24.2615 21.271 24.2343C21.4662 24.2139 21.6468 24.1822 21.7913 24.1381C22.5939 23.9161 23.2633 23.3895 23.7904 22.5684C24.9903 20.505 23.9823 18.5016 22.9235 17.1857C20.6546 14.3658 16.1666 12.2083 14.0818 12.4201C13.9395 12.4348 13.8097 12.4609 13.6968 12.4983C12.62 12.8539 11.1187 14.8482 10.1288 17.2389C10.0441 17.4416 9.85786 17.5809 9.64113 17.6024C9.54406 17.6126 9.44473 17.5979 9.35329 17.5605C9.05078 17.4348 8.90856 17.086 9.03272 16.7825C10.1807 14.0136 11.9066 11.8369 13.3266 11.368C13.5072 11.308 13.7104 11.2661 13.9316 11.2446C15.0864 11.1268 16.7457 11.5334 18.4851 12.3624C20.6287 13.3816 22.5815 14.8675 23.8446 16.4394C25.7037 18.7496 26.0355 21.0814 24.8052 23.1845Z" fill="#D74242"/>
<path d="M20.761 22.4483C20.4596 22.4788 20.253 22.4811 19.9065 22.4075C19.5859 22.3395 19.3805 22.0236 19.4482 21.7031C19.5012 21.4483 19.7112 21.2591 19.9686 21.2331C20.0295 21.2274 20.0905 21.2297 20.1503 21.2433C20.3873 21.2931 20.472 21.2863 20.6458 21.2682C20.9766 21.2342 21.1831 21.0779 21.2757 20.7903C21.559 19.9081 20.8332 18.3554 19.5825 17.8005C19.2834 17.668 19.1479 17.3158 19.28 17.0157C19.3658 16.8209 19.5509 16.6861 19.7631 16.6646C19.8647 16.6544 19.9686 16.6703 20.0634 16.7122C21.9213 17.5378 22.8481 19.7778 22.4056 21.1561C22.1629 21.9058 21.5793 22.3645 20.761 22.4483Z" fill="#D74242"/>
</g>
<defs>
<clipPath id="clip0_31129_14039">
<rect width="155.556" height="28.0864" fill="white"/>
</clipPath>
</defs>
</svg>
